<svg width="240" height="300" viewBox="0 0 240 300" fill="none" xmlns="http://www.w3.org/2000/svg">
<path d="M46.0471 292.893V290.766H49.0375V273.708H46.0471V271.581H54.5972V273.708H51.6068V290.766H54.5972V292.893H46.0471Z" fill="black"/>
<path d="M61.395 292.893V277.141H63.8379V279.71H63.9643C64.3539 278.815 64.9014 278.099 65.6069 277.562C66.3071 277.03 67.2495 276.762 68.4288 276.762C70.0557 276.762 71.3403 277.288 72.2827 278.341C73.2356 279.394 73.7147 280.879 73.7147 282.785V292.893H71.2719V283.206C71.2719 280.384 70.0767 278.973 67.6918 278.973C67.1969 278.973 66.723 279.036 66.2597 279.162C65.807 279.278 65.4016 279.457 65.0383 279.71C64.6697 279.952 64.3749 280.258 64.1538 280.637C63.9432 281.016 63.8379 281.458 63.8379 281.963V292.893H61.395Z" fill="black"/>
<path d="M85.8502 293.251C84.3866 293.251 83.1599 292.977 82.1648 292.43C81.1803 291.872 80.3327 291.119 79.6166 290.177L81.3646 288.766C81.9648 289.539 82.6492 290.134 83.4073 290.556C84.1655 290.977 85.0394 291.187 86.0397 291.187C87.0769 291.187 87.8824 290.966 88.4616 290.513C89.0354 290.066 89.325 289.434 89.325 288.618C89.325 288.018 89.1249 287.497 88.7353 287.06C88.3405 286.612 87.6245 286.312 86.5873 286.154L85.3237 285.965C84.5919 285.87 83.918 285.712 83.302 285.501C82.6966 285.28 82.1648 284.991 81.7015 284.638C81.2487 284.275 80.9013 283.832 80.6485 283.311C80.3958 282.779 80.2695 282.148 80.2695 281.416C80.2695 280.647 80.4064 279.973 80.6907 279.394C80.9697 278.804 81.354 278.32 81.8489 277.941C82.3544 277.551 82.9493 277.257 83.639 277.057C84.3392 276.862 85.0815 276.762 85.8713 276.762C87.1611 276.762 88.2352 276.988 89.0933 277.436C89.962 277.888 90.7202 278.51 91.3678 279.31L89.7672 280.763C89.4145 280.289 88.9038 279.852 88.2299 279.457C87.556 279.052 86.7136 278.847 85.7028 278.847C84.6761 278.847 83.9022 279.068 83.3863 279.499C82.865 279.936 82.6071 280.531 82.6071 281.289C82.6071 282.063 82.865 282.627 83.3863 282.974C83.9022 283.311 84.6551 283.564 85.6396 283.732L86.8611 283.922C88.6142 284.19 89.8567 284.696 90.5886 285.438C91.3151 286.17 91.6836 287.139 91.6836 288.344C91.6836 289.876 91.1624 291.077 90.1252 291.946C89.0828 292.819 87.6613 293.251 85.8502 293.251Z" fill="black"/>
<path d="M98.3566 277.379H100.799V279.948H100.926C101.331 278.953 101.926 278.216 102.716 277.737C103.5 277.247 104.443 277 105.538 277C106.517 277 107.402 277.2 108.191 277.59C108.992 277.985 109.665 278.537 110.213 279.253C110.771 279.959 111.203 280.822 111.498 281.844C111.792 282.854 111.94 283.992 111.94 285.255C111.94 286.519 111.792 287.667 111.498 288.688C111.203 289.699 110.771 290.562 110.213 291.278C109.665 291.984 108.992 292.531 108.191 292.921C107.402 293.3 106.517 293.489 105.538 293.489C103.4 293.489 101.863 292.515 100.926 290.562H100.799V299.239H98.3566V277.379ZM104.864 291.299C106.254 291.299 107.338 290.873 108.128 290.015C108.928 289.146 109.328 288.009 109.328 286.603V283.907C109.328 282.507 108.928 281.375 108.128 280.517C107.338 279.648 106.254 279.211 104.864 279.211C104.316 279.211 103.79 279.29 103.284 279.443C102.79 279.601 102.363 279.811 102 280.075C101.631 280.327 101.336 280.643 101.115 281.022C100.905 281.401 100.799 281.802 100.799 282.223V288.098C100.799 288.604 100.905 289.062 101.115 289.467C101.336 289.862 101.631 290.199 102 290.478C102.363 290.746 102.79 290.952 103.284 291.089C103.79 291.231 104.316 291.299 104.864 291.299Z" fill="black"/>
<path d="M124.097 293.489C123.012 293.489 122.038 293.3 121.17 292.921C120.296 292.531 119.553 291.973 118.937 291.257C118.316 290.531 117.842 289.667 117.505 288.667C117.168 287.656 117 286.519 117 285.255C117 284.007 117.168 282.876 117.505 281.865C117.842 280.843 118.316 279.969 118.937 279.253C119.553 278.537 120.296 277.985 121.17 277.59C122.038 277.2 123.012 277 124.097 277C125.15 277 126.087 277.2 126.919 277.59C127.761 277.985 128.477 278.527 129.067 279.211C129.657 279.885 130.104 280.696 130.415 281.633C130.736 282.56 130.899 283.586 130.899 284.708V285.866H119.569V286.603C119.569 287.277 119.675 287.903 119.885 288.477C120.096 289.056 120.396 289.562 120.791 289.994C121.196 290.415 121.686 290.752 122.265 291.004C122.854 291.247 123.513 291.362 124.244 291.362C125.239 291.362 126.108 291.131 126.856 290.668C127.598 290.194 128.172 289.52 128.583 288.646L130.31 289.888C129.804 290.973 129.009 291.842 127.93 292.5C126.845 293.158 125.571 293.489 124.097 293.489ZM124.097 279.064C123.423 279.064 122.802 279.185 122.244 279.422C121.696 279.648 121.222 279.98 120.833 280.412C120.438 280.833 120.127 281.333 119.906 281.907C119.68 282.486 119.569 283.123 119.569 283.823V284.034H128.267V283.697C128.267 282.296 127.877 281.17 127.108 280.327C126.35 279.485 125.345 279.064 124.097 279.064Z" fill="black"/>
<path d="M143.034 293.489C141.923 293.489 140.933 293.3 140.064 292.921C139.19 292.531 138.453 291.984 137.853 291.278C137.248 290.562 136.784 289.699 136.463 288.688C136.153 287.667 136 286.519 136 285.255C136 283.992 136.153 282.854 136.463 281.844C136.784 280.822 137.248 279.959 137.853 279.253C138.453 278.537 139.19 277.985 140.064 277.59C140.933 277.2 141.923 277 143.034 277C144.592 277 145.84 277.347 146.782 278.032C147.735 278.722 148.446 279.611 148.909 280.706L146.867 281.738C146.582 280.928 146.114 280.296 145.456 279.843C144.808 279.396 144.003 279.169 143.034 279.169C142.286 279.169 141.644 279.29 141.096 279.527C140.549 279.769 140.091 280.096 139.728 280.517C139.359 280.928 139.085 281.422 138.906 282.012C138.722 282.591 138.632 283.223 138.632 283.907V286.603C138.632 287.982 139.001 289.109 139.749 289.994C140.491 290.878 141.586 291.32 143.034 291.32C144.998 291.32 146.424 290.41 147.309 288.583L149.078 289.783C148.557 290.92 147.793 291.826 146.782 292.5C145.782 293.158 144.534 293.489 143.034 293.489Z" fill="black"/>
<path d="M158.806 292.892C157.947 292.892 157.295 292.656 156.847 292.176C156.41 291.703 156.194 291.076 156.194 290.302V279.267H153.604V277.14H155.078C155.594 277.14 155.952 277.035 156.152 276.824C156.347 276.603 156.447 276.229 156.447 275.708V272.76H158.637V277.14H162.091V279.267H158.637V290.766H161.859V292.892H158.806Z" fill="black"/>
<path d="M169 292.752V277H171.443V279.906H171.59C171.885 279.148 172.396 278.474 173.128 277.884C173.854 277.295 174.865 277 176.16 277H177.087V279.443H175.655C174.333 279.443 173.301 279.696 172.559 280.201C171.811 280.696 171.443 281.317 171.443 282.075V292.752H169Z" fill="black"/>
<path d="M193.443 292.893C192.527 292.893 191.869 292.651 191.463 292.156C191.068 291.666 190.821 291.056 190.726 290.324H190.579C190.226 291.308 189.652 292.046 188.852 292.535C188.062 293.009 187.125 293.251 186.03 293.251C184.356 293.251 183.06 292.83 182.134 291.988C181.207 291.135 180.744 289.966 180.744 288.492C180.744 287.007 181.281 285.87 182.366 285.08C183.461 284.28 185.156 283.88 187.462 283.88H190.579V282.321C190.579 281.216 190.268 280.363 189.652 279.773C189.047 279.173 188.115 278.868 186.851 278.868C185.893 278.868 185.093 279.089 184.45 279.52C183.803 279.942 183.271 280.51 182.85 281.226L181.376 279.857C181.807 279.005 182.492 278.273 183.418 277.667C184.356 277.067 185.545 276.762 186.978 276.762C188.883 276.762 190.368 277.236 191.421 278.173C192.485 279.115 193.022 280.421 193.022 282.09V290.766H194.812V292.893H193.443ZM186.409 291.187C187.025 291.187 187.588 291.119 188.094 290.977C188.599 290.84 189.031 290.635 189.399 290.366C189.778 290.103 190.063 289.797 190.263 289.461C190.473 289.113 190.579 288.734 190.579 288.323V285.712H187.336C185.93 285.712 184.903 285.917 184.261 286.323C183.629 286.733 183.313 287.323 183.313 288.092V288.744C183.313 289.518 183.587 290.124 184.135 290.556C184.693 290.977 185.451 291.187 186.409 291.187Z" fill="black"/>
<mask id="mask0_2_503" style="mask-type:luminance" maskUnits="userSpaceOnUse" x="0" y="0" width="240" height="240">
<path d="M0 0H239.571V239.571H0V0Z" fill="white"/>
</mask>
<g mask="url(#mask0_2_503)">
<mask id="mask1_2_503" style="mask-type:luminance" maskUnits="userSpaceOnUse" x="0" y="0" width="240" height="240">
<path d="M64.5416 0H175.377C177.488 0 179.599 0.105296 181.7 0.310625C183.806 0.521219 185.891 0.831845 187.965 1.2425C190.04 1.65316 192.088 2.16911 194.109 2.77983C196.131 3.39582 198.121 4.10657 200.074 4.91736C202.028 5.72288 203.933 6.62843 205.802 7.62348C207.666 8.61854 209.477 9.70309 211.236 10.8771C212.989 12.0565 214.684 13.3095 216.322 14.652C217.954 15.9946 219.517 17.4108 221.013 18.906C222.508 20.4012 223.924 21.9649 225.267 23.6023C226.609 25.2344 227.867 26.9296 229.041 28.6881C230.215 30.4465 231.3 32.2576 232.295 34.1214C233.295 35.9851 234.196 37.891 235.006 39.8443C235.812 41.7975 236.528 43.7876 237.139 45.8093C237.755 47.831 238.265 49.8791 238.676 51.9534C239.092 54.0277 239.403 56.1179 239.608 58.2186C239.813 60.3245 239.919 62.4304 239.919 64.5469V175.377C239.919 177.488 239.813 179.599 239.608 181.705C239.403 183.806 239.092 185.896 238.676 187.97C238.265 190.04 237.755 192.088 237.139 194.114C236.528 196.136 235.812 198.121 235.006 200.074C234.196 202.028 233.295 203.939 232.295 205.802C231.3 207.666 230.215 209.477 229.041 211.236C227.867 212.994 226.609 214.689 225.267 216.322C223.924 217.959 222.508 219.523 221.013 221.018C219.517 222.513 217.954 223.929 216.322 225.272C214.684 226.609 212.989 227.867 211.236 229.041C209.477 230.215 207.666 231.305 205.802 232.3C203.933 233.295 202.028 234.201 200.074 235.006C198.121 235.817 196.131 236.528 194.109 237.144C192.088 237.755 190.04 238.271 187.965 238.681C185.891 239.092 183.806 239.403 181.7 239.608C179.599 239.819 177.488 239.919 175.377 239.919H64.5416C62.4304 239.919 60.3192 239.819 58.2186 239.608C56.1126 239.403 54.0277 239.092 51.9534 238.681C49.8791 238.271 47.831 237.755 45.8093 237.144C43.7876 236.528 41.7975 235.817 39.8443 235.006C37.891 234.201 35.9851 233.295 34.1161 232.3C32.2524 231.305 30.4413 230.215 28.6828 229.041C26.9296 227.867 25.2344 226.609 23.597 225.272C21.9649 223.929 20.4012 222.513 18.906 221.018C17.4108 219.523 15.9893 217.959 14.652 216.322C13.3095 214.689 12.0512 212.994 10.8771 211.236C9.70309 209.477 8.61854 207.666 7.62348 205.802C6.62316 203.939 5.72288 202.028 4.91209 200.074C4.10657 198.121 3.39055 196.136 2.77983 194.114C2.16385 192.088 1.65316 190.04 1.2425 187.97C0.82658 185.896 0.515954 183.806 0.310625 181.705C0.105296 179.599 0 177.488 0 175.377V64.5469C0 62.4304 0.105296 60.3245 0.310625 58.2186C0.515954 56.1179 0.82658 54.0277 1.2425 51.9534C1.65316 49.8791 2.16385 47.831 2.77983 45.8093C3.39055 43.7876 4.10657 41.7975 4.91209 39.8443C5.72288 37.891 6.62316 35.9851 7.62348 34.1214C8.61854 32.2576 9.70309 30.4465 10.8771 28.6881C12.0512 26.9296 13.3095 25.2344 14.652 23.6023C15.9893 21.9649 17.4108 20.4012 18.906 18.906C20.4012 17.4108 21.9649 15.9946 23.597 14.652C25.2344 13.3095 26.9296 12.0565 28.6828 10.8771C30.4413 9.70309 32.2524 8.61854 34.1161 7.62348C35.9851 6.62843 37.891 5.72288 39.8443 4.91736C41.7975 4.10657 43.7876 3.39582 45.8093 2.77983C47.831 2.16911 49.8791 1.65316 51.9534 1.2425C54.0277 0.831845 56.1126 0.521219 58.2186 0.310625C60.3192 0.105296 62.4304 0 64.5416 0Z" fill="white"/>
</mask>
<g mask="url(#mask1_2_503)">
<path d="M0 239.571H239.571V0H0V239.571Z" fill="white" fill-opacity="0.9"/>
</g>
</g>
<mask id="mask2_2_503" style="mask-type:luminance" maskUnits="userSpaceOnUse" x="66" y="45" width="81" height="45">
<path d="M66.7266 45.2723H146.247V89.5443H66.7266V45.2723Z" fill="white"/>
</mask>
<g mask="url(#mask2_2_503)">
<path d="M145.51 88.6813L133.764 46.5573C110.372 42.1928 85.2746 49.037 67.1689 67.1428C67.0794 67.2323 66.9899 67.3534 66.8688 67.4429L145.51 88.6813Z" fill="#205280"/>
</g>
<mask id="mask3_2_503" style="mask-type:luminance" maskUnits="userSpaceOnUse" x="45" y="69" width="63" height="72">
<path d="M45.267 69.3273H107.16V140.761H45.267V69.3273Z" fill="white"/>
</mask>
<g mask="url(#mask3_2_503)">
<path d="M106.097 81.752L64.0941 70.3957C46.7938 89.8756 41.4132 116.168 47.9574 139.892L106.097 81.752Z" fill="#205280"/>
</g>
<path d="M190.771 96.1512C187.218 85.5478 181.21 75.5973 172.787 67.142C162.747 57.1019 150.559 50.5314 137.707 47.3936L159.909 126.987L190.771 96.1512Z" fill="#205280"/>
<mask id="mask4_2_503" style="mask-type:luminance" maskUnits="userSpaceOnUse" x="132" y="98" width="63" height="73">
<path d="M132.769 98.9785H194.341V170.412H132.769V98.9785Z" fill="white"/>
</mask>
<g mask="url(#mask4_2_503)">
<path d="M133.648 158.324L175.535 169.859C193.072 150.379 198.537 123.876 191.935 100.037L133.648 158.324Z" fill="#205280"/>
</g>
<mask id="mask5_2_503" style="mask-type:luminance" maskUnits="userSpaceOnUse" x="92" y="150" width="82" height="45">
<path d="M92.3347 150.195H173.203V194.346H92.3347V150.195Z" fill="white"/>
</mask>
<g mask="url(#mask5_2_503)">
<path d="M93.6404 151.038L104.633 193.072C128.446 198.032 154.233 191.282 172.723 172.819L93.6404 151.038Z" fill="#205280"/>
</g>
<path d="M49.1525 143.777C52.7063 154.381 58.7135 164.331 67.1372 172.787C76.7876 182.437 88.4124 188.892 100.69 192.145L79.9571 112.973L49.1525 143.777Z" fill="#205280"/>
<path d="M124.454 139.911H115.441V104.468H124.454V139.911Z" fill="#205280"/>
</svg>
