<?xml version="1.0" standalone="no"?>
<!DOCTYPE svg PUBLIC "-//W3C//DTD SVG 20010904//EN"
 "http://www.w3.org/TR/2001/REC-SVG-20010904/DTD/svg10.dtd">
<svg version="1.0" xmlns="http://www.w3.org/2000/svg"
 width="500.000000pt" height="500.000000pt" viewBox="0 0 500.000000 500.000000"
 preserveAspectRatio="xMidYMid meet">

<g transform="translate(0.000000,500.000000) scale(0.100000,-0.100000)"
fill="#000000" stroke="none">
<path d="M3118 3573 c6 -2 18 -2 25 0 6 3 1 5 -13 5 -14 0 -19 -2 -12 -5z"/>
<path d="M3053 3493 c9 -2 25 -2 35 0 9 3 1 5 -18 5 -19 0 -27 -2 -17 -5z"/>
<path d="M2430 3370 c-9 -6 -10 -10 -3 -10 6 0 15 5 18 10 8 12 4 12 -15 0z"/>
<path d="M2363 3353 c9 -2 23 -2 30 0 6 3 -1 5 -18 5 -16 0 -22 -2 -12 -5z"/>
<path d="M3236 3322 c-22 -27 -24 -32 -7 -17 20 17 47 55 39 55 -2 0 -16 -17
-32 -38z"/>
<path d="M3020 3316 c0 -2 8 -10 18 -17 15 -13 16 -12 3 4 -13 16 -21 21 -21
13z"/>
<path d="M3112 3294 c9 -9 21 -15 27 -13 6 2 -2 10 -17 17 -25 11 -25 11 -10
-4z"/>
<path d="M3723 3193 c9 -2 23 -2 30 0 6 3 -1 5 -18 5 -16 0 -22 -2 -12 -5z"/>
<path d="M3659 3169 l-24 -20 30 17 c39 24 40 24 28 24 -6 0 -21 -9 -34 -21z"/>
<path d="M1719 3133 c-13 -16 -12 -17 4 -4 9 7 17 15 17 17 0 8 -8 3 -21 -13z"/>
<path d="M3595 3099 c-4 -6 -5 -12 -2 -15 2 -3 7 2 10 11 7 17 1 20 -8 4z"/>
<path d="M3673 3063 c15 -2 37 -2 50 0 12 2 0 4 -28 4 -27 0 -38 -2 -22 -4z"/>
<path d="M3788 3063 c6 -2 18 -2 25 0 6 3 1 5 -13 5 -14 0 -19 -2 -12 -5z"/>
<path d="M3582 3030 c0 -19 2 -27 5 -17 2 9 2 25 0 35 -3 9 -5 1 -5 -18z"/>
<path d="M3663 2994 c8 -14 -79 -24 -204 -24 -135 0 -129 18 -129 -356 l0
-304 -547 -2 c-516 -3 -548 -4 -545 -20 2 -10 -2 -18 -8 -18 -5 0 -9 -6 -7
-12 1 -7 -5 -12 -13 -10 -8 2 -11 0 -7 -4 11 -11 38 -14 31 -3 -3 5 16 10 43
11 l48 1 -45 7 -45 7 45 3 45 3 -37 4 c-21 2 -38 9 -38 14 0 6 190 9 505 9
472 -1 506 -2 503 -18 -2 -13 4 -17 27 -15 25 2 31 -2 32 -18 2 -21 1 -21 -13
-3 -14 18 -15 18 -9 -2 5 -19 2 -20 -52 -15 -71 8 -471 6 -688 -2 -92 -3 -141
-2 -115 3 43 7 -155 3 -207 -5 -13 -2 -29 3 -37 11 -22 22 -32 17 -11 -6 18
-20 31 -20 582 -20 l563 0 0 -420 0 -421 25 -24 24 -25 383 2 c211 1 352 4
313 7 -38 3 -77 11 -85 16 -9 6 -142 12 -320 15 l-305 5 -3 774 c-1 563 1 777
9 787 8 10 41 14 125 14 103 0 115 -2 126 -20 12 -18 24 -20 140 -20 117 0
128 2 138 20 10 18 21 20 123 20 75 0 117 -4 125 -12 9 -9 12 -177 12 -695 0
-600 2 -683 15 -683 13 0 15 83 15 690 l0 689 -22 21 c-18 17 -36 20 -107 22
-47 0 -150 2 -229 4 -102 1 -147 6 -159 15 -9 8 -14 9 -10 3z m-359 -703 c3
-5 0 -11 -8 -14 -15 -6 -26 1 -26 15 0 11 27 10 34 -1z"/>
<path d="M3621 2813 c2 -26 2 -27 6 -4 4 19 7 21 14 10 7 -11 9 -11 9 4 0 9
-7 17 -15 17 -10 0 -15 -9 -14 -27z"/>
<path d="M3666 2824 c-8 -21 -8 -21 13 -27 14 -3 17 0 14 14 -7 26 -20 32 -27
13z"/>
<path d="M3720 2825 c-7 -9 -8 -15 -2 -15 5 0 12 7 16 15 3 8 4 15 2 15 -2 0
-9 -7 -16 -15z"/>
<path d="M3750 2834 c0 -6 7 -19 15 -30 8 -10 14 -14 14 -9 0 6 -6 19 -14 29
-8 11 -15 15 -15 10z"/>
<path d="M3818 2833 c7 -3 16 -2 19 1 4 3 -2 6 -13 5 -11 0 -14 -3 -6 -6z"/>
<path d="M3850 2816 c0 -31 6 -34 13 -6 3 11 1 23 -4 26 -5 3 -9 -6 -9 -20z"/>
<path d="M3877 2820 c-3 -11 -1 -23 4 -26 5 -3 9 6 9 20 0 31 -6 34 -13 6z"/>
<path d="M3908 2815 c2 -14 6 -25 7 -25 1 0 5 11 7 25 3 16 1 25 -7 25 -8 0
-10 -9 -7 -25z"/>
<path d="M4098 2833 c7 -3 16 -2 19 1 4 3 -2 6 -13 5 -11 0 -14 -3 -6 -6z"/>
<path d="M3434 2819 c-3 -6 -2 -15 3 -20 5 -5 9 -1 9 11 0 23 -2 24 -12 9z"/>
<path d="M3818 2813 c7 -3 16 -2 19 1 4 3 -2 6 -13 5 -11 0 -14 -3 -6 -6z"/>
<path d="M3818 2793 c7 -3 16 -2 19 1 4 3 -2 6 -13 5 -11 0 -14 -3 -6 -6z"/>
<path d="M1705 2591 c-35 -22 -39 -39 -7 -34 15 2 21 0 14 -3 -10 -5 -9 -9 5
-19 10 -7 14 -17 10 -21 -4 -5 -12 -2 -17 6 -7 10 -10 11 -10 3 0 -7 -7 -13
-16 -13 -8 0 -13 -4 -9 -9 10 -18 -16 -23 -34 -7 -23 21 -26 20 -28 -5 -1 -15
2 -19 15 -15 15 6 15 5 0 -7 -10 -8 -14 -18 -10 -22 4 -5 2 -5 -5 -2 -6 4 -14
1 -17 -5 -3 -7 -3 -1 -1 15 4 27 -8 37 -20 17 -3 -5 -2 -10 4 -10 6 0 8 -7 5
-15 -9 -21 -21 -19 -27 6 -4 16 1 23 24 33 16 7 27 15 23 18 -3 4 8 14 25 23
17 8 31 20 31 26 0 9 -31 -11 -103 -65 -11 -8 -15 -21 -11 -32 5 -18 4 -18
-11 1 -15 19 -16 19 -22 -3 -4 -18 -8 -20 -14 -10 -7 10 -9 10 -9 1 0 -7 -5
-13 -10 -13 -6 0 -20 -9 -32 -20 -12 -11 -28 -20 -36 -20 -17 0 -6 -39 17 -58
14 -12 14 -13 -2 -8 -11 3 -16 2 -12 -4 3 -6 1 -10 -4 -10 -6 0 -11 10 -11 23
0 29 -7 37 -26 30 -13 -5 -13 -7 0 -17 18 -14 31 -56 17 -56 -5 0 -11 10 -13
23 -4 30 -47 37 -55 8 -3 -12 -10 -21 -15 -21 -5 0 -6 5 -2 12 4 6 3 8 -3 5
-5 -3 -11 -29 -12 -57 -1 -39 2 -50 11 -44 66 38 197 138 192 145 -3 6 2 9 11
7 10 -2 20 3 22 10 7 18 -28 3 -47 -20 -15 -18 -16 -18 -16 2 0 11 6 20 13 20
6 0 24 11 39 25 15 14 30 25 35 25 14 0 20 -18 8 -26 -8 -4 -9 -3 -5 4 5 8 1
10 -10 5 -11 -4 -13 -8 -6 -11 7 -2 9 -8 6 -14 -4 -6 2 -5 15 1 11 7 21 16 21
21 0 6 4 10 9 10 4 0 42 23 84 50 79 52 104 60 113 36 8 -20 31 -27 31 -10 0
7 -4 11 -8 9 -3 -3 -13 3 -20 12 -12 14 -11 15 9 9 14 -5 29 -3 40 6 15 11 15
11 6 -2 -20 -27 -12 -51 29 -86 22 -18 43 -32 45 -29 8 8 -20 35 -29 29 -5 -3
-6 2 -3 10 5 12 10 10 30 -11 13 -14 22 -29 19 -33 -7 -11 105 -82 120 -76 9
3 12 0 9 -9 -3 -7 3 -16 13 -19 10 -3 31 -17 47 -31 18 -15 33 -22 40 -16 6 5
19 7 29 6 9 -2 15 1 12 5 -3 5 0 12 5 15 14 8 -17 45 -37 45 -7 0 -22 -9 -33
-20 -22 -22 -26 -14 -6 12 7 10 16 15 19 11 4 -3 7 -1 7 5 0 18 -17 23 -24 7
-3 -8 -11 -14 -18 -13 -7 2 -12 -5 -10 -14 2 -12 -2 -16 -13 -12 -8 3 -13 10
-10 14 3 5 1 11 -5 15 -6 4 -7 11 -4 17 4 6 2 8 -3 5 -6 -4 -23 0 -39 8 -15 7
-31 12 -36 9 -4 -3 -8 -1 -8 5 0 5 17 7 38 5 20 -2 44 -5 52 -6 8 0 23 -8 33
-16 9 -8 17 -10 17 -5 0 17 -48 43 -66 36 -12 -5 -15 -3 -9 6 6 10 3 11 -13 2
-30 -16 -37 -13 -18 7 15 18 14 21 -36 55 -47 33 -53 35 -68 22 -15 -14 -19
-14 -30 0 -9 11 -17 12 -34 4 -20 -10 -20 -10 -2 5 11 9 31 14 45 11 l26 -4
-29 24 c-17 13 -33 22 -38 19 -4 -3 -8 1 -8 8 0 8 -5 6 -11 -4 -5 -10 -18 -18
-27 -18 -15 1 -14 3 3 16 20 15 20 16 -10 39 -33 27 -62 28 -100 6z m90 -15
c16 -16 16 -18 -1 -31 -23 -16 -69 -14 -69 3 0 7 -6 17 -14 21 -11 7 -10 11 5
19 24 14 59 8 79 -12z m80 -56 c-3 -5 -11 -10 -16 -10 -6 0 -7 5 -4 10 3 6 11
10 16 10 6 0 7 -4 4 -10z m88 -63 c-3 -4 1 -7 8 -6 8 2 24 -3 35 -11 22 -14
21 -18 -16 -47 -12 -9 -19 -8 -35 4 -12 9 -14 14 -5 11 18 -5 54 28 40 37 -6
4 -10 1 -10 -5 0 -6 -5 -8 -12 -4 -7 5 -8 3 -3 -6 5 -8 3 -11 -6 -8 -8 3 -13
11 -11 18 1 6 -7 14 -18 17 -16 4 -18 9 -9 19 8 10 15 11 29 2 10 -7 16 -16
13 -21z m-79 8 c-5 -12 -10 -13 -20 -4 -19 15 -18 19 6 19 13 0 18 -5 14 -15z
m-362 -44 c-17 -18 -32 -18 -32 0 0 6 5 7 10 4 6 -3 13 1 16 9 3 9 10 13 15
11 4 -3 1 -14 -9 -24z m-45 -16 c0 -8 -6 -16 -12 -19 -7 -2 -11 -16 -10 -31 4
-29 -12 -30 -29 -2 -9 14 -5 22 19 42 17 13 30 24 31 25 0 0 1 -7 1 -15z
m-110 -90 c-4 -8 -2 -17 3 -20 6 -4 10 -12 9 -18 0 -9 -2 -9 -6 1 -7 18 -21
15 -19 -5 0 -11 -5 -17 -13 -15 -8 2 -17 -2 -21 -9 -4 -6 -7 0 -7 15 0 23 7
30 29 28 3 -1 9 6 12 14 5 12 2 15 -9 10 -9 -3 -13 -2 -10 4 10 16 38 12 32
-5z m829 -31 c-13 -14 -28 -13 -38 1 -5 6 -8 5 -8 -3 0 -7 -5 -10 -10 -7 -8 5
-7 11 1 21 9 11 15 12 26 3 7 -7 16 -9 20 -5 3 3 1 6 -6 6 -7 0 -9 4 -6 10 4
6 11 5 19 -2 9 -9 10 -16 2 -24z"/>
<path d="M1730 2576 c0 -10 6 -13 18 -9 15 6 15 5 3 -10 -12 -16 -12 -17 7
-10 20 8 29 22 15 24 -5 1 -16 5 -25 10 -14 7 -18 6 -18 -5z"/>
<path d="M1430 2371 c0 -5 5 -13 10 -16 6 -3 10 -2 10 4 0 5 -4 13 -10 16 -5
3 -10 2 -10 -4z"/>
<path d="M3606 2519 c-27 -16 -46 -32 -43 -35 3 -3 25 9 50 27 l45 31 47 -36
48 -36 148 0 c82 0 149 3 149 8 0 4 -69 8 -153 10 -151 2 -152 3 -195 32 -23
17 -44 30 -45 30 -2 0 -25 -14 -51 -31z"/>
<path d="M1659 2531 c-1 -3 -1 -10 0 -15 1 -5 -5 -6 -14 -3 -23 9 -18 -1 8
-14 12 -6 19 -8 14 -4 -4 5 0 16 8 25 13 15 13 17 0 17 -8 0 -16 -3 -16 -6z"/>
<path d="M3120 2268 c0 -4 19 -8 42 -8 23 0 38 3 34 7 -10 10 -76 11 -76 1z"/>
<path d="M2370 2259 c-23 -5 -10 -5 35 -2 39 3 72 7 74 9 7 7 -72 2 -109 -7z"/>
<path d="M2625 2240 c-3 -5 -1 -10 4 -10 6 0 11 5 11 10 0 6 -2 10 -4 10 -3 0
-8 -4 -11 -10z"/>
<path d="M3218 2243 c12 -2 32 -2 45 0 12 2 2 4 -23 4 -25 0 -35 -2 -22 -4z"/>
<path d="M3638 1959 c-21 -12 -24 -69 -6 -87 8 -8 57 -12 153 -12 96 0 145 4
153 12 20 20 15 76 -7 88 -25 13 -270 13 -293 -1z m120 -27 c2 -7 -5 -16 -16
-19 -12 -3 -23 -12 -25 -22 -3 -9 -5 1 -6 22 -1 34 2 38 21 35 12 -2 23 -9 26
-16z m52 -32 c0 -3 -13 -5 -30 -6 l-29 -1 16 30 15 31 14 -25 c7 -13 13 -26
14 -29z m33 42 c2 7 7 10 11 7 3 -3 0 -18 -7 -32 l-14 -27 -11 26 c-16 33 -15
39 2 25 11 -9 15 -9 19 1z"/>
<path d="M3720 1930 c0 -5 5 -10 10 -10 6 0 10 5 10 10 0 6 -4 10 -10 10 -5 0
-10 -4 -10 -10z"/>
<path d="M945 1820 c-4 -6 -14 -10 -23 -9 -66 6 -382 -3 -382 -11 0 -6 75 -10
205 -10 l205 0 0 -235 c0 -150 4 -235 10 -235 6 0 10 85 10 235 0 202 2 235
15 235 20 0 19 10 -2 26 -22 16 -30 17 -38 4z"/>
<path d="M1855 1770 c-8 -14 3 -30 21 -30 8 0 14 9 14 20 0 21 -24 28 -35 10z"/>
<path d="M3435 1759 c-4 -6 -4 -13 -1 -17 4 -3 147 -5 319 -4 271 1 312 3 315
17 3 13 -34 15 -312 15 -212 0 -317 -3 -321 -11z"/>
<path d="M785 1630 c5 -14 2 -20 -9 -20 -9 0 -16 8 -17 18 0 9 -3 12 -5 6 -3
-6 -16 -9 -29 -6 -19 3 -25 0 -26 -14 0 -11 -3 -14 -6 -6 -2 6 -11 12 -19 12
-16 0 -18 -18 -5 -39 7 -12 13 -12 24 -3 7 7 17 9 20 5 4 -3 12 -2 19 4 7 5
26 10 43 11 52 4 75 52 24 52 -16 0 -19 -5 -14 -20z m30 0 c3 -5 1 -10 -4 -10
-6 0 -11 5 -11 10 0 6 2 10 4 10 3 0 8 -4 11 -10z m-85 -20 c0 -5 -4 -10 -10
-10 -5 0 -10 5 -10 10 0 6 5 10 10 10 6 0 10 -4 10 -10z"/>
<path d="M931 1160 c-104 -25 -159 -153 -117 -273 27 -74 78 -108 162 -108
114 0 174 65 174 191 0 81 -25 139 -71 167 -41 25 -102 34 -148 23z m92 -71
c14 -6 31 -23 38 -37 18 -32 18 -118 1 -158 -24 -57 -100 -72 -149 -30 -26 23
-28 29 -28 106 0 77 2 83 28 106 30 26 71 31 110 13z"/>
<path d="M2015 1159 c-80 -19 -125 -88 -125 -192 0 -71 28 -138 70 -169 37
-27 114 -26 151 1 29 21 29 21 29 1 0 -17 6 -20 40 -20 l40 0 0 105 0 105 -85
0 -85 0 0 -30 c0 -29 2 -30 45 -30 41 0 45 -2 45 -25 0 -53 -64 -81 -123 -54
-34 16 -47 49 -47 125 0 59 3 68 29 95 39 38 100 41 135 6 22 -22 26 -23 50
-10 29 15 30 17 16 44 -23 41 -113 65 -185 48z"/>
<path d="M2790 1161 c-88 -18 -130 -80 -130 -191 0 -79 15 -123 53 -159 48
-44 144 -44 180 0 l17 21 0 -26 c0 -23 4 -26 35 -26 l35 0 0 105 0 105 -80 0
-80 0 0 -30 c0 -29 2 -30 45 -30 41 0 45 -2 45 -25 0 -56 -85 -87 -137 -50
-38 26 -52 107 -32 177 18 66 102 90 156 44 27 -23 29 -23 55 -8 16 9 28 19
28 22 0 18 -61 60 -100 69 -25 6 -47 10 -50 10 -3 -1 -21 -4 -40 -8z"/>
<path d="M330 970 l0 -190 35 0 34 0 3 128 3 127 44 -127 43 -128 32 0 c32 0
32 0 76 128 l45 127 3 -127 3 -128 34 0 35 0 0 190 0 190 -48 0 -48 0 -33
-102 c-19 -57 -41 -120 -50 -141 l-16 -38 -49 141 -48 140 -49 0 -49 0 0 -190z"/>
<path d="M1230 971 l0 -191 40 0 40 0 0 80 0 80 34 0 c42 0 55 -16 82 -94 20
-59 22 -61 59 -64 36 -3 37 -2 31 23 -14 54 -47 134 -62 146 -13 10 -10 16 18
39 44 37 46 96 5 138 -26 26 -33 27 -137 30 l-110 4 0 -191z m188 117 c7 -7
12 -24 12 -38 0 -38 -18 -50 -72 -50 l-48 0 0 50 0 50 48 0 c26 0 53 -5 60
-12z"/>
<path d="M1550 1130 c0 -30 1 -30 55 -30 l55 0 0 -160 0 -160 40 0 40 0 0 160
0 160 55 0 c54 0 55 0 55 30 l0 30 -150 0 -150 0 0 -30z"/>
<path d="M2390 1157 c0 -2 -29 -88 -65 -190 l-65 -187 39 0 c37 0 40 2 54 43
l14 42 73 0 73 0 15 -42 c13 -41 15 -43 54 -43 34 0 39 3 33 18 -4 9 -29 80
-55 157 -27 77 -54 155 -60 173 -11 30 -15 32 -61 32 -27 0 -49 -1 -49 -3z
m75 -147 c10 -30 20 -61 23 -67 3 -9 -10 -13 -47 -13 -28 0 -51 3 -51 7 0 21
45 142 51 136 3 -5 15 -33 24 -63z"/>
<path d="M3070 970 l0 -190 130 0 130 0 0 30 0 30 -90 0 -90 0 0 55 0 55 75 0
75 0 0 30 0 30 -75 0 -75 0 0 45 0 45 85 0 85 0 0 30 0 30 -125 0 -125 0 0
-190z"/>
<path d="M3610 1156 c0 -2 -29 -87 -65 -190 l-64 -186 38 0 c37 0 40 2 54 43
l14 42 73 0 73 0 15 -42 c13 -41 16 -43 52 -43 l39 0 -54 158 c-29 86 -59 172
-65 190 -11 30 -15 32 -61 32 -27 0 -49 -2 -49 -4z m75 -146 c10 -30 20 -61
23 -67 3 -9 -10 -13 -47 -13 -28 0 -51 3 -51 7 0 21 45 142 51 136 3 -5 15
-33 24 -63z"/>
<path d="M3900 970 l0 -190 35 0 35 0 0 70 0 70 53 0 c96 0 147 43 147 125 0
84 -49 115 -180 115 l-90 0 0 -190z m184 108 c36 -51 3 -98 -69 -98 l-45 0 0
60 0 60 49 0 c40 0 53 -4 65 -22z"/>
<path d="M4240 970 l0 -190 40 0 40 0 0 69 0 68 63 5 c35 3 75 13 89 22 68 45
62 163 -12 201 -20 10 -59 15 -125 15 l-95 0 0 -190z m181 120 c14 -8 19 -21
19 -50 0 -46 -18 -60 -79 -60 l-41 0 0 60 0 60 41 0 c22 0 49 -5 60 -10z"/>
</g>
</svg>
