<svg width="56" height="56" viewBox="0 0 56 56" fill="none" xmlns="http://www.w3.org/2000/svg">
<g filter="url(#filter0_d_29_160)">
<rect x="4.5" y="0.5" width="47" height="47" rx="11.5" fill="white" stroke="#045925"/>
<path d="M37 24C37 21.6131 36.0518 19.3239 34.364 17.636C32.6761 15.9482 30.3869 15 28 15C25.484 15.0095 23.069 15.9912 21.26 17.74L19 20M19 20V15M19 20H24M19 24C19 26.3869 19.9482 28.6761 21.636 30.364C23.3239 32.0518 25.6131 33 28 33C30.516 32.9905 32.931 32.0088 34.74 30.26L37 28M37 28H32M37 28V33" stroke="#045925" stroke-width="2" stroke-linecap="round" stroke-linejoin="round"/>
</g>
<defs>
<filter id="filter0_d_29_160" x="0" y="0" width="56" height="56" filterUnits="userSpaceOnUse" color-interpolation-filters="sRGB">
<feFlood flood-opacity="0" result="BackgroundImageFix"/>
<feColorMatrix in="SourceAlpha" type="matrix" values="0 0 0 0 0 0 0 0 0 0 0 0 0 0 0 0 0 0 127 0" result="hardAlpha"/>
<feOffset dy="4"/>
<feGaussianBlur stdDeviation="2"/>
<feComposite in2="hardAlpha" operator="out"/>
<feColorMatrix type="matrix" values="0 0 0 0 0 0 0 0 0 0 0 0 0 0 0 0 0 0 0.25 0"/>
<feBlend mode="normal" in2="BackgroundImageFix" result="effect1_dropShadow_29_160"/>
<feBlend mode="normal" in="SourceGraphic" in2="effect1_dropShadow_29_160" result="shape"/>
</filter>
</defs>
</svg>
